<svg width="72" height="72" viewBox="0 0 72 72" fill="none" xmlns="http://www.w3.org/2000/svg">
<path d="M14.854 0.917229H15.7712H56.8897C58.7199 0.917229 60.5322 1.27771 62.223 1.9781C63.9139 2.67849 65.4503 3.70506 66.7444 4.99921C68.0386 6.29336 69.0652 7.82973 69.7656 9.52061C70.466 11.2115 70.8264 13.0238 70.8264 14.854V56.8891C70.8264 58.7193 70.466 60.5316 69.7656 62.2225C69.0652 63.9134 68.0386 65.4498 66.7444 66.7439C65.4503 68.038 63.9139 69.0646 62.223 69.765C60.5322 70.4654 58.7199 70.8259 56.8897 70.8259H14.8545C11.1581 70.8259 7.61312 69.3575 4.99937 66.7437C2.38562 64.13 0.917229 60.585 0.917229 56.8886V14.854C0.917229 11.1577 2.38556 7.61286 4.99921 4.99921C7.61286 2.38556 11.1577 0.917229 14.854 0.917229Z" fill="#FF7427" stroke="white" stroke-width="1.83446"/>
<path d="M52.1342 58.759H19.231L14.2637 23.7031H57.4785L52.1342 58.759Z" fill="white"/>
<mask id="mask0_1207_14000" style="mask-type:alpha" maskUnits="userSpaceOnUse" x="14" y="23" width="44" height="36">
<path d="M52.1317 58.759H19.2285L14.2612 23.7031H57.4761L52.1317 58.759Z" fill="white"/>
</mask>
<g mask="url(#mask0_1207_14000)">
<path d="M62.6533 12.3848H35.8689V63.5096H62.6533V12.3848Z" fill="#F7EAE4"/>
</g>
<path d="M35.5215 38.4814C35.3407 38.4814 35.1605 38.4781 34.9791 38.4694C30.9552 38.1068 27.2235 36.2149 24.5527 33.1834C24.3601 32.9529 24.2668 32.6555 24.2932 32.3563C24.3197 32.0571 24.4638 31.7806 24.6939 31.5876C24.9239 31.3945 25.2212 31.3006 25.5205 31.3265C25.8197 31.3524 26.0964 31.4959 26.2899 31.7256C28.5676 34.2618 31.7084 35.8585 35.0996 36.2043C38.4072 36.3415 41.691 34.8121 44.8503 31.6528C45.0633 31.441 45.3516 31.3224 45.6519 31.3229C45.9523 31.3234 46.2402 31.4429 46.4525 31.6553C46.6649 31.8677 46.7843 32.1557 46.7847 32.4561C46.7851 32.7564 46.6663 33.0447 46.4545 33.2576C42.9852 36.7263 39.3094 38.4814 35.5215 38.4814Z" fill="#FF7427"/>
<path d="M25.4218 20.1458C25.206 20.1453 24.9949 20.0833 24.8131 19.9672C24.6313 19.851 24.4863 19.6855 24.3952 19.49C24.304 19.2945 24.2705 19.077 24.2984 18.8631C24.3263 18.6492 24.4145 18.4477 24.5528 18.2821C27.2238 15.2508 30.9553 13.359 34.9791 12.996C38.9609 12.8232 42.8223 14.5744 46.4546 18.2079C46.6664 18.4208 46.7851 18.7091 46.7847 19.0094C46.7844 19.3098 46.6649 19.5977 46.4526 19.8101C46.2402 20.0225 45.9523 20.1421 45.652 20.1426C45.3516 20.1431 45.0633 20.0244 44.8503 19.8127C41.6845 16.6474 38.406 15.1182 35.0791 15.2618C31.6935 15.6039 28.5585 17.2009 26.2913 19.7385C26.1853 19.8662 26.0524 19.9689 25.9021 20.0393C25.7517 20.1097 25.5877 20.1461 25.4218 20.1458Z" fill="white"/>
<path d="M27.1988 32.4546C27.1988 32.8053 27.0948 33.1481 26.9 33.4397C26.7052 33.7312 26.4283 33.9585 26.1043 34.0927C25.7803 34.2269 25.4239 34.262 25.0799 34.1936C24.736 34.1252 24.4201 33.9563 24.1721 33.7084C23.9242 33.4604 23.7553 33.1445 23.6869 32.8005C23.6185 32.4566 23.6536 32.1001 23.7878 31.7761C23.922 31.4522 24.1492 31.1753 24.4408 30.9804C24.7324 30.7856 25.0752 30.6816 25.4258 30.6816C25.6587 30.6815 25.8893 30.7272 26.1045 30.8163C26.3197 30.9053 26.5152 31.0359 26.6799 31.2006C26.8445 31.3653 26.9751 31.5608 27.0642 31.776C27.1532 31.9911 27.199 32.2218 27.1988 32.4546Z" fill="#FF7427"/>
<path d="M47.4252 32.4546C47.4253 32.8055 47.3214 33.1486 47.1265 33.4404C46.9317 33.7322 46.6546 33.9597 46.3304 34.094C46.0063 34.2284 45.6495 34.2635 45.3054 34.1951C44.9612 34.1266 44.6451 33.9576 44.397 33.7094C44.1489 33.4613 43.98 33.1451 43.9117 32.8009C43.8433 32.4567 43.8786 32.1 44.013 31.7759C44.1474 31.4518 44.375 31.1748 44.6668 30.98C44.9587 30.7852 45.3018 30.6814 45.6527 30.6816C45.8855 30.6817 46.1161 30.7275 46.3311 30.8166C46.5462 30.9058 46.7416 31.0364 46.9062 31.201C47.0708 31.3656 47.2013 31.5611 47.2904 31.7762C47.3794 31.9913 47.4252 32.2218 47.4252 32.4546Z" fill="#FF7427"/>
</svg>
