<svg width="191" height="183" viewBox="0 0 191 183" fill="none" xmlns="http://www.w3.org/2000/svg">
<path d="M2.31913 162.082V135.399H12.8464C14.8615 135.399 16.5814 135.759 18.0058 136.48C19.439 137.193 20.5291 138.205 21.2761 139.516C22.0317 140.819 22.4096 142.352 22.4096 144.115C22.4096 145.887 22.0274 147.412 21.263 148.688C20.4987 149.957 19.3912 150.929 17.9407 151.607C16.4988 152.284 14.753 152.623 12.7031 152.623H5.65451V148.089H11.7911C12.8681 148.089 13.7628 147.941 14.475 147.646C15.1873 147.351 15.7171 146.908 16.0645 146.317C16.4207 145.727 16.5987 144.993 16.5987 144.115C16.5987 143.229 16.4207 142.482 16.0645 141.874C15.7171 141.266 15.1829 140.806 14.462 140.493C13.7498 140.172 12.8508 140.011 11.765 140.011H7.96061V162.082H2.31913ZM16.729 149.939L23.3607 162.082H17.1329L10.6446 149.939H16.729ZM31.9988 162.46C30.722 162.46 29.5841 162.238 28.5852 161.795C27.5864 161.344 26.796 160.679 26.214 159.802C25.6407 158.916 25.3541 157.813 25.3541 156.493C25.3541 155.381 25.5582 154.447 25.9665 153.691C26.3747 152.936 26.9306 152.328 27.6341 151.867C28.3377 151.407 29.1368 151.06 30.0314 150.825C30.9348 150.591 31.8815 150.426 32.8717 150.33C34.0356 150.208 34.9737 150.096 35.686 149.991C36.3982 149.878 36.915 149.713 37.2364 149.496C37.5578 149.279 37.7185 148.958 37.7185 148.532V148.454C37.7185 147.629 37.4579 146.99 36.9367 146.539C36.4243 146.087 35.6946 145.861 34.7479 145.861C33.749 145.861 32.9542 146.083 32.3636 146.526C31.773 146.96 31.3821 147.507 31.191 148.167L26.0577 147.75C26.3182 146.534 26.8307 145.483 27.5951 144.597C28.3594 143.703 29.3453 143.017 30.5526 142.539C31.7686 142.052 33.1757 141.809 34.7739 141.809C35.8857 141.809 36.9498 141.939 37.966 142.2C38.9909 142.461 39.8986 142.865 40.689 143.412C41.4881 143.959 42.1179 144.662 42.5782 145.522C43.0386 146.374 43.2687 147.394 43.2687 148.584V162.082H38.0051V159.307H37.8487C37.5274 159.932 37.0974 160.484 36.5589 160.962C36.0204 161.431 35.3733 161.8 34.6176 162.069C33.8619 162.33 32.989 162.46 31.9988 162.46ZM33.5883 158.629C34.4048 158.629 35.1257 158.469 35.7511 158.147C36.3765 157.817 36.8672 157.374 37.2234 156.818C37.5795 156.262 37.7575 155.633 37.7575 154.929V152.806C37.5838 152.918 37.345 153.023 37.041 153.118C36.7456 153.205 36.4112 153.288 36.0377 153.366C35.6642 153.435 35.2907 153.5 34.9173 153.561C34.5438 153.613 34.205 153.661 33.901 153.704C33.2496 153.8 32.6806 153.952 32.1942 154.161C31.7078 154.369 31.33 154.651 31.0607 155.007C30.7915 155.355 30.6568 155.789 30.6568 156.31C30.6568 157.066 30.9304 157.644 31.4776 158.043C32.0335 158.434 32.7371 158.629 33.5883 158.629ZM53.125 150.512V162.082H47.5748V142.07H52.8645V145.601H53.099C53.542 144.437 54.2846 143.516 55.3269 142.838C56.3692 142.152 57.633 141.809 59.1183 141.809C60.508 141.809 61.7197 142.113 62.7533 142.721C63.787 143.329 64.5904 144.198 65.1637 145.327C65.7369 146.447 66.0236 147.785 66.0236 149.34V162.082H60.4733V150.33C60.482 149.105 60.1693 148.15 59.5352 147.464C58.9011 146.769 58.0282 146.421 56.9164 146.421C56.1694 146.421 55.5093 146.582 54.936 146.903C54.3715 147.225 53.9285 147.694 53.6071 148.311C53.2944 148.919 53.1337 149.653 53.125 150.512ZM79.414 170.004C77.616 170.004 76.0742 169.756 74.7887 169.261C73.5119 168.775 72.4956 168.11 71.74 167.268C70.9843 166.425 70.4936 165.478 70.2677 164.427L75.4011 163.737C75.5574 164.136 75.805 164.51 76.1437 164.857C76.4825 165.205 76.9298 165.483 77.4857 165.691C78.0503 165.908 78.7365 166.017 79.5442 166.017C80.7516 166.017 81.7461 165.721 82.5278 165.131C83.3183 164.549 83.7135 163.572 83.7135 162.199V158.538H83.4789C83.2357 159.094 82.8709 159.62 82.3845 160.115C81.8981 160.61 81.2727 161.014 80.5084 161.326C79.744 161.639 78.832 161.795 77.7723 161.795C76.2697 161.795 74.9016 161.448 73.6682 160.753C72.4435 160.05 71.4664 158.977 70.7368 157.535C70.0158 156.084 69.6554 154.252 69.6554 152.037C69.6554 149.77 70.0245 147.876 70.7628 146.356C71.5011 144.836 72.4826 143.698 73.7073 142.943C74.9407 142.187 76.2914 141.809 77.7593 141.809C78.8798 141.809 79.8178 142 80.5735 142.382C81.3292 142.756 81.9372 143.225 82.3976 143.79C82.8666 144.345 83.2271 144.893 83.4789 145.431H83.6874V142.07H89.1986V162.277C89.1986 163.98 88.7817 165.404 87.9478 166.551C87.114 167.697 85.9588 168.557 84.4822 169.131C83.0143 169.713 81.3248 170.004 79.414 170.004ZM79.5312 157.626C80.4259 157.626 81.1815 157.405 81.7982 156.962C82.4236 156.51 82.9013 155.867 83.2314 155.033C83.5701 154.191 83.7395 153.183 83.7395 152.011C83.7395 150.838 83.5745 149.822 83.2444 148.962C82.9144 148.093 82.4366 147.42 81.8113 146.943C81.1859 146.465 80.4259 146.226 79.5312 146.226C78.6192 146.226 77.8505 146.473 77.2251 146.969C76.5997 147.455 76.1263 148.133 75.805 149.001C75.4836 149.87 75.3229 150.873 75.3229 152.011C75.3229 153.166 75.4836 154.165 75.805 155.007C76.135 155.841 76.6084 156.488 77.2251 156.949C77.8505 157.4 78.6192 157.626 79.5312 157.626ZM102.736 162.473C100.677 162.473 98.9051 162.056 97.4198 161.222C95.9432 160.38 94.8053 159.19 94.0062 157.652C93.2071 156.106 92.8076 154.278 92.8076 152.167C92.8076 150.109 93.2071 148.302 94.0062 146.747C94.8053 145.192 95.9302 143.981 97.3807 143.112C98.8399 142.243 100.551 141.809 102.514 141.809C103.834 141.809 105.063 142.022 106.201 142.448C107.348 142.865 108.347 143.494 109.198 144.337C110.058 145.179 110.727 146.239 111.204 147.516C111.682 148.784 111.921 150.269 111.921 151.972V153.496H95.0225V150.056H106.696C106.696 149.257 106.523 148.549 106.175 147.933C105.828 147.316 105.346 146.834 104.729 146.487C104.121 146.13 103.413 145.952 102.605 145.952C101.763 145.952 101.016 146.148 100.364 146.539C99.7216 146.921 99.2178 147.438 98.853 148.089C98.4882 148.732 98.3014 149.448 98.2927 150.239V153.509C98.2927 154.499 98.4751 155.355 98.8399 156.076C99.2134 156.797 99.7389 157.353 100.416 157.743C101.094 158.134 101.897 158.33 102.827 158.33C103.443 158.33 104.008 158.243 104.521 158.069C105.033 157.895 105.472 157.635 105.836 157.287C106.201 156.94 106.479 156.514 106.67 156.011L111.804 156.349C111.543 157.583 111.009 158.66 110.201 159.58C109.402 160.493 108.368 161.205 107.1 161.717C105.841 162.221 104.386 162.473 102.736 162.473ZM115.647 162.082V135.399H126.174C128.198 135.399 129.922 135.786 131.347 136.559C132.771 137.323 133.857 138.387 134.604 139.751C135.36 141.106 135.738 142.669 135.738 144.441C135.738 146.213 135.355 147.776 134.591 149.131C133.827 150.486 132.719 151.542 131.269 152.297C129.827 153.053 128.081 153.431 126.031 153.431H119.321V148.91H125.119C126.205 148.91 127.099 148.723 127.803 148.35C128.515 147.967 129.045 147.442 129.393 146.773C129.749 146.096 129.927 145.318 129.927 144.441C129.927 143.555 129.749 142.782 129.393 142.122C129.045 141.453 128.515 140.936 127.803 140.571C127.091 140.198 126.187 140.011 125.093 140.011H121.289V162.082H115.647ZM144.848 135.399V162.082H139.298V135.399H144.848ZM162.127 153.561V142.07H167.678V162.082H162.349V158.447H162.14C161.689 159.62 160.937 160.562 159.886 161.274C158.844 161.986 157.572 162.343 156.069 162.343C154.731 162.343 153.554 162.039 152.538 161.431C151.522 160.823 150.727 159.958 150.154 158.838C149.589 157.717 149.303 156.375 149.294 154.812V142.07H154.844V153.822C154.853 155.003 155.17 155.937 155.795 156.623C156.421 157.309 157.259 157.652 158.31 157.652C158.979 157.652 159.604 157.5 160.186 157.196C160.768 156.884 161.237 156.423 161.593 155.815C161.958 155.207 162.136 154.456 162.127 153.561ZM188.768 147.776L183.687 148.089C183.6 147.655 183.413 147.264 183.127 146.916C182.84 146.56 182.462 146.278 181.993 146.07C181.533 145.852 180.981 145.744 180.338 145.744C179.479 145.744 178.753 145.926 178.163 146.291C177.572 146.647 177.277 147.125 177.277 147.724C177.277 148.202 177.468 148.606 177.85 148.936C178.232 149.266 178.888 149.531 179.817 149.731L183.439 150.46C185.385 150.86 186.836 151.503 187.791 152.389C188.746 153.275 189.224 154.438 189.224 155.88C189.224 157.192 188.838 158.343 188.065 159.333C187.3 160.323 186.249 161.096 184.912 161.652C183.583 162.199 182.05 162.473 180.312 162.473C177.663 162.473 175.553 161.921 173.98 160.818C172.417 159.706 171.501 158.195 171.231 156.284L176.69 155.998C176.855 156.805 177.255 157.422 177.889 157.848C178.523 158.265 179.335 158.473 180.325 158.473C181.298 158.473 182.08 158.286 182.671 157.913C183.27 157.531 183.574 157.04 183.583 156.441C183.574 155.937 183.361 155.524 182.944 155.203C182.527 154.873 181.885 154.621 181.016 154.447L177.55 153.757C175.596 153.366 174.141 152.688 173.186 151.724C172.239 150.76 171.766 149.531 171.766 148.037C171.766 146.751 172.113 145.644 172.808 144.715C173.511 143.785 174.497 143.069 175.765 142.565C177.042 142.061 178.536 141.809 180.247 141.809C182.775 141.809 184.764 142.343 186.214 143.412C187.674 144.48 188.525 145.935 188.768 147.776Z" fill="white"/>
<g filter="url(#filter0_d_615_10455)">
<path d="M74.854 48.9172H75.7712H116.89C118.72 48.9172 120.532 49.2777 122.223 49.9781C123.914 50.6785 125.45 51.7051 126.744 52.9992C128.039 54.2934 129.065 55.8297 129.766 57.5206C130.466 59.2115 130.826 61.0238 130.826 62.854V104.889C130.826 106.719 130.466 108.532 129.766 110.222C129.065 111.913 128.039 113.45 126.744 114.744C125.45 116.038 123.914 117.065 122.223 117.765C120.532 118.465 118.72 118.826 116.89 118.826H74.8545C71.1581 118.826 67.6131 117.357 64.9994 114.744C62.3856 112.13 60.9172 108.585 60.9172 104.889V62.854C60.9172 59.1577 62.3856 55.6129 64.9992 52.9992C67.6129 50.3856 71.1577 48.9172 74.854 48.9172Z" fill="#FF7427" stroke="white" stroke-width="1.83446"/>
<path d="M112.134 106.759H79.2312L74.2639 71.7031H117.479L112.134 106.759Z" fill="white"/>
<mask id="mask0_615_10455" style="mask-type:alpha" maskUnits="userSpaceOnUse" x="74" y="71" width="44" height="36">
<path d="M112.132 106.759H79.2285L74.2612 71.7031H117.476L112.132 106.759Z" fill="white"/>
</mask>
<g mask="url(#mask0_615_10455)">
<path d="M122.653 60.3848H95.8689V111.51H122.653V60.3848Z" fill="#F7EAE4"/>
</g>
<path d="M95.5215 86.4814C95.3407 86.4814 95.1605 86.4781 94.9791 86.4694C90.9552 86.1068 87.2235 84.2149 84.5527 81.1834C84.3601 80.9529 84.2668 80.6555 84.2932 80.3563C84.3197 80.0571 84.4638 79.7806 84.6939 79.5876C84.9239 79.3945 85.2212 79.3006 85.5205 79.3265C85.8197 79.3524 86.0964 79.4959 86.2899 79.7256V79.7256C88.5676 82.2618 91.7084 83.8585 95.0996 84.2043C98.4072 84.3415 101.691 82.8121 104.85 79.6528C105.063 79.441 105.352 79.3224 105.652 79.3229C105.952 79.3234 106.24 79.4429 106.453 79.6553C106.665 79.8677 106.784 80.1557 106.785 80.4561C106.785 80.7564 106.666 81.0447 106.455 81.2576C102.985 84.7263 99.3094 86.4814 95.5215 86.4814Z" fill="#FF7427"/>
<path d="M85.4218 68.1458C85.206 68.1453 84.9949 68.0833 84.8131 67.9672C84.6313 67.851 84.4863 67.6855 84.3952 67.49C84.304 67.2945 84.2705 67.077 84.2984 66.8631C84.3263 66.6492 84.4145 66.4477 84.5528 66.2821C87.2238 63.2508 90.9553 61.359 94.9791 60.996C98.9609 60.8232 102.822 62.5744 106.455 66.2079C106.666 66.4208 106.785 66.7091 106.785 67.0094C106.784 67.3098 106.665 67.5977 106.453 67.8101C106.24 68.0225 105.952 68.1421 105.652 68.1426C105.352 68.1431 105.063 68.0244 104.85 67.8127C101.685 64.6474 98.406 63.1182 95.0791 63.2618C91.6935 63.6039 88.5585 65.2009 86.2913 67.7385C86.1853 67.8662 86.0524 67.9689 85.9021 68.0393C85.7517 68.1097 85.5877 68.1461 85.4218 68.1458V68.1458Z" fill="white"/>
<path d="M87.1988 80.4546C87.1988 80.8053 87.0948 81.1481 86.9 81.4397C86.7052 81.7312 86.4283 81.9585 86.1043 82.0927C85.7803 82.2269 85.4239 82.262 85.0799 82.1936C84.736 82.1252 84.4201 81.9563 84.1721 81.7084C83.9242 81.4604 83.7553 81.1445 83.6869 80.8005C83.6185 80.4566 83.6536 80.1001 83.7878 79.7761C83.922 79.4522 84.1492 79.1753 84.4408 78.9804C84.7324 78.7856 85.0752 78.6816 85.4258 78.6816C85.6587 78.6815 85.8893 78.7272 86.1045 78.8163C86.3197 78.9053 86.5152 79.0359 86.6799 79.2006C86.8445 79.3653 86.9751 79.5608 87.0642 79.776C87.1532 79.9911 87.199 80.2218 87.1988 80.4546V80.4546Z" fill="#FF7427"/>
<path d="M107.425 80.4546C107.425 80.8055 107.321 81.1486 107.127 81.4404C106.932 81.7322 106.655 81.9597 106.33 82.094C106.006 82.2284 105.65 82.2635 105.305 82.1951C104.961 82.1266 104.645 81.9576 104.397 81.7094C104.149 81.4613 103.98 81.1451 103.912 80.8009C103.843 80.4567 103.879 80.1 104.013 79.7759C104.147 79.4518 104.375 79.1748 104.667 78.98C104.959 78.7852 105.302 78.6814 105.653 78.6816C105.886 78.6817 106.116 78.7275 106.331 78.8166C106.546 78.9058 106.742 79.0364 106.906 79.201C107.071 79.3656 107.201 79.5611 107.29 79.7762C107.379 79.9913 107.425 80.2218 107.425 80.4546V80.4546Z" fill="#FF7427"/>
</g>
<defs>
<filter id="filter0_d_615_10455" x="4.96624" y="0.304075" width="181.811" height="181.81" filterUnits="userSpaceOnUse" color-interpolation-filters="sRGB">
<feFlood flood-opacity="0" result="BackgroundImageFix"/>
<feColorMatrix in="SourceAlpha" type="matrix" values="0 0 0 0 0 0 0 0 0 0 0 0 0 0 0 0 0 0 127 0" result="hardAlpha"/>
<feOffset dy="7.33783"/>
<feGaussianBlur stdDeviation="27.5169"/>
<feComposite in2="hardAlpha" operator="out"/>
<feColorMatrix type="matrix" values="0 0 0 0 1 0 0 0 0 1 0 0 0 0 1 0 0 0 0.2 0"/>
<feBlend mode="normal" in2="BackgroundImageFix" result="effect1_dropShadow_615_10455"/>
<feBlend mode="normal" in="SourceGraphic" in2="effect1_dropShadow_615_10455" result="shape"/>
</filter>
</defs>
</svg>
