<svg width="183" height="183" viewBox="0 0 183 183" fill="none" xmlns="http://www.w3.org/2000/svg">
<g filter="url(#filter0_d_615_10457)">
<path d="M70.854 48.9172H71.7712H112.89C114.72 48.9172 116.532 49.2777 118.223 49.9781C119.914 50.6785 121.45 51.7051 122.744 52.9992C124.039 54.2934 125.065 55.8297 125.766 57.5206C126.466 59.2115 126.826 61.0238 126.826 62.854V104.889C126.826 106.719 126.466 108.532 125.766 110.222C125.065 111.913 124.039 113.45 122.744 114.744C121.45 116.038 119.914 117.065 118.223 117.765C116.532 118.465 114.72 118.826 112.89 118.826H70.8545C67.1581 118.826 63.6131 117.357 60.9994 114.744C58.3856 112.13 56.9172 108.585 56.9172 104.889V62.854C56.9172 59.1577 58.3856 55.6129 60.9992 52.9992C63.6129 50.3856 67.1577 48.9172 70.854 48.9172Z" fill="#FF7427" stroke="white" stroke-width="1.83446"/>
<path d="M108.134 106.759H75.2312L70.2639 71.7031H113.479L108.134 106.759Z" fill="white"/>
<mask id="mask0_615_10457" style="mask-type:alpha" maskUnits="userSpaceOnUse" x="70" y="71" width="44" height="36">
<path d="M108.132 106.759H75.2285L70.2612 71.7031H113.476L108.132 106.759Z" fill="white"/>
</mask>
<g mask="url(#mask0_615_10457)">
<path d="M118.653 60.3848H91.8689V111.51H118.653V60.3848Z" fill="#F7EAE4"/>
</g>
<path d="M91.5215 86.4814C91.3407 86.4814 91.1605 86.4781 90.9791 86.4694C86.9552 86.1068 83.2235 84.2149 80.5527 81.1834C80.3601 80.9529 80.2668 80.6555 80.2932 80.3563C80.3197 80.0571 80.4638 79.7806 80.6939 79.5876C80.9239 79.3945 81.2212 79.3006 81.5205 79.3265C81.8197 79.3524 82.0964 79.4959 82.2899 79.7256C84.5676 82.2618 87.7084 83.8585 91.0996 84.2043C94.4072 84.3415 97.691 82.8121 100.85 79.6528C101.063 79.441 101.352 79.3224 101.652 79.3229C101.952 79.3234 102.24 79.4429 102.453 79.6553C102.665 79.8677 102.784 80.1557 102.785 80.4561C102.785 80.7564 102.666 81.0447 102.455 81.2576C98.9852 84.7263 95.3094 86.4814 91.5215 86.4814Z" fill="#FF7427"/>
<path d="M81.4218 68.1458C81.206 68.1453 80.9949 68.0833 80.8131 67.9672C80.6313 67.851 80.4863 67.6855 80.3952 67.49C80.304 67.2945 80.2705 67.077 80.2984 66.8631C80.3263 66.6492 80.4145 66.4477 80.5528 66.2821C83.2238 63.2508 86.9553 61.359 90.9791 60.996C94.9609 60.8232 98.8223 62.5744 102.455 66.2079C102.666 66.4208 102.785 66.7091 102.785 67.0094C102.784 67.3098 102.665 67.5977 102.453 67.8101C102.24 68.0225 101.952 68.1421 101.652 68.1426C101.352 68.1431 101.063 68.0244 100.85 67.8127C97.6845 64.6474 94.406 63.1182 91.0791 63.2618C87.6935 63.6039 84.5585 65.2009 82.2913 67.7385C82.1853 67.8662 82.0524 67.9689 81.9021 68.0393C81.7517 68.1097 81.5877 68.1461 81.4218 68.1458Z" fill="white"/>
<path d="M83.1988 80.4546C83.1988 80.8053 83.0948 81.1481 82.9 81.4397C82.7052 81.7312 82.4283 81.9585 82.1043 82.0927C81.7803 82.2269 81.4239 82.262 81.0799 82.1936C80.736 82.1252 80.4201 81.9563 80.1721 81.7084C79.9242 81.4604 79.7553 81.1445 79.6869 80.8005C79.6185 80.4566 79.6536 80.1001 79.7878 79.7761C79.922 79.4522 80.1492 79.1753 80.4408 78.9804C80.7324 78.7856 81.0752 78.6816 81.4258 78.6816C81.6587 78.6815 81.8893 78.7272 82.1045 78.8163C82.3197 78.9053 82.5152 79.0359 82.6799 79.2006C82.8445 79.3653 82.9751 79.5608 83.0642 79.776C83.1532 79.9911 83.199 80.2218 83.1988 80.4546Z" fill="#FF7427"/>
<path d="M103.425 80.4546C103.425 80.8055 103.321 81.1486 103.127 81.4404C102.932 81.7322 102.655 81.9597 102.33 82.094C102.006 82.2284 101.65 82.2635 101.305 82.1951C100.961 82.1266 100.645 81.9576 100.397 81.7094C100.149 81.4613 99.98 81.1451 99.9117 80.8009C99.8433 80.4567 99.8786 80.1 100.013 79.7759C100.147 79.4518 100.375 79.1748 100.667 78.98C100.959 78.7852 101.302 78.6814 101.653 78.6816C101.886 78.6817 102.116 78.7275 102.331 78.8166C102.546 78.9058 102.742 79.0364 102.906 79.201C103.071 79.3656 103.201 79.5611 103.29 79.7762C103.379 79.9913 103.425 80.2218 103.425 80.4546Z" fill="#FF7427"/>
</g>
<defs>
<filter id="filter0_d_615_10457" x="0.96624" y="0.304075" width="181.811" height="181.81" filterUnits="userSpaceOnUse" color-interpolation-filters="sRGB">
<feFlood flood-opacity="0" result="BackgroundImageFix"/>
<feColorMatrix in="SourceAlpha" type="matrix" values="0 0 0 0 0 0 0 0 0 0 0 0 0 0 0 0 0 0 127 0" result="hardAlpha"/>
<feOffset dy="7.33783"/>
<feGaussianBlur stdDeviation="27.5169"/>
<feComposite in2="hardAlpha" operator="out"/>
<feColorMatrix type="matrix" values="0 0 0 0 1 0 0 0 0 1 0 0 0 0 1 0 0 0 0.2 0"/>
<feBlend mode="normal" in2="BackgroundImageFix" result="effect1_dropShadow_615_10457"/>
<feBlend mode="normal" in="SourceGraphic" in2="effect1_dropShadow_615_10457" result="shape"/>
</filter>
</defs>
</svg>
